<mxfile><diagram id="6em03NbC_pN_KzQ8iHL5" name="Page-1"><mxGraphModel dx="746" dy="563" grid="1" gridSize="10" guides="1" tooltips="1" connect="1" arrows="1" fold="1" page="1" pageScale="1" pageWidth="850" pageHeight="1100" background="#ffffff" math="0" shadow="0"><root><mxCell id="0"/><mxCell id="1" parent="0"/><mxCell id="3" value="" style="fontColor=#0066CC;verticalAlign=top;verticalLabelPosition=bottom;labelPosition=center;align=center;html=1;outlineConnect=0;fillColor=#CCCCCC;strokeColor=#6881B3;gradientColor=none;gradientDirection=north;strokeWidth=2;shape=mxgraph.networks.pc;" parent="1" vertex="1"><mxGeometry x="180" y="230" width="100" height="70" as="geometry"/></mxCell><mxCell id="21" style="edgeStyle=none;html=1;exitX=0;exitY=0.25;exitDx=0;exitDy=0;strokeColor=#000000;" parent="1" source="4" edge="1"><mxGeometry relative="1" as="geometry"><mxPoint x="290" y="250" as="targetPoint"/></mxGeometry></mxCell><mxCell id="23" style="edgeStyle=none;html=1;exitX=0.25;exitY=1;exitDx=0;exitDy=0;strokeColor=#000000;" parent="1" source="4" target="5" edge="1"><mxGeometry relative="1" as="geometry"/></mxCell><mxCell id="4" value="" style="aspect=fixed;perimeter=ellipsePerimeter;html=1;align=center;shadow=0;dashed=0;spacingTop=3;image;image=img/lib/active_directory/web_server.svg;" parent="1" vertex="1"><mxGeometry x="445.22" y="230" width="64.78" height="80.97" as="geometry"/></mxCell><mxCell id="24" style="edgeStyle=none;html=1;exitX=0.5;exitY=1;exitDx=0;exitDy=0;exitPerimeter=0;entryX=0.5;entryY=0;entryDx=0;entryDy=0;strokeColor=#000000;" parent="1" source="5" target="6" edge="1"><mxGeometry relative="1" as="geometry"/></mxCell><mxCell id="5" value="" style="outlineConnect=0;dashed=0;verticalLabelPosition=bottom;verticalAlign=top;align=center;html=1;shape=mxgraph.aws3.android;fillColor=#5A69A4;gradientColor=none;" parent="1" vertex="1"><mxGeometry x="429.31" y="370" width="67.5" height="80" as="geometry"/></mxCell><mxCell id="25" style="edgeStyle=none;html=1;exitX=0.5;exitY=1;exitDx=0;exitDy=0;labelBackgroundColor=#18141D;strokeColor=#000000;" parent="1" source="6" edge="1"><mxGeometry relative="1" as="geometry"><mxPoint x="462.3301149425288" y="620" as="targetPoint"/></mxGeometry></mxCell><mxCell id="6" value="" style="aspect=fixed;perimeter=ellipsePerimeter;html=1;align=center;shadow=0;dashed=0;spacingTop=3;image;image=img/lib/active_directory/databases.svg;" parent="1" vertex="1"><mxGeometry x="432.45" y="510" width="61.22" height="60" as="geometry"/></mxCell><mxCell id="18" style="edgeStyle=none;html=1;fontColor=#000000;strokeColor=#000000;" parent="1" edge="1"><mxGeometry relative="1" as="geometry"><mxPoint x="290" y="790" as="targetPoint"/><mxPoint x="430" y="790" as="sourcePoint"/></mxGeometry></mxCell><mxCell id="26" style="edgeStyle=none;html=1;entryX=0.5;entryY=0;entryDx=0;entryDy=0;strokeColor=#000000;" parent="1" target="8" edge="1"><mxGeometry relative="1" as="geometry"><mxPoint x="461.60679611650494" y="694" as="sourcePoint"/></mxGeometry></mxCell><mxCell id="8" value="" style="aspect=fixed;perimeter=ellipsePerimeter;html=1;align=center;shadow=0;dashed=0;spacingTop=3;image;image=img/lib/active_directory/web_server.svg;" parent="1" vertex="1"><mxGeometry x="428.89000000000004" y="760" width="64.78" height="80.97" as="geometry"/></mxCell><mxCell id="19" style="edgeStyle=none;html=1;exitX=1;exitY=0.5;exitDx=0;exitDy=0;exitPerimeter=0;strokeColor=#000000;" parent="1" source="9" edge="1"><mxGeometry relative="1" as="geometry"><mxPoint x="430" y="810" as="targetPoint"/></mxGeometry></mxCell><mxCell id="9" value="" style="fontColor=#0066CC;verticalAlign=top;verticalLabelPosition=bottom;labelPosition=center;align=center;html=1;outlineConnect=0;fillColor=#CCCCCC;strokeColor=#6881B3;gradientColor=none;gradientDirection=north;strokeWidth=2;shape=mxgraph.networks.pc;" parent="1" vertex="1"><mxGeometry x="175" y="775.48" width="100" height="70" as="geometry"/></mxCell><mxCell id="10" value="" style="edgeStyle=none;orthogonalLoop=1;jettySize=auto;html=1;fontColor=#000000;labelBackgroundColor=#000000;labelBorderColor=default;strokeColor=#000000;" parent="1" source="3" edge="1"><mxGeometry width="100" relative="1" as="geometry"><mxPoint x="370" y="230" as="sourcePoint"/><mxPoint x="440" y="270" as="targetPoint"/><Array as="points"/></mxGeometry></mxCell><mxCell id="11" value="PC" style="text;html=1;align=center;verticalAlign=middle;resizable=0;points=[];autosize=1;strokeColor=none;fillColor=none;" parent="1" vertex="1"><mxGeometry x="220" y="190" width="40" height="30" as="geometry"/></mxCell><mxCell id="12" value="Servidor web&lt;br&gt;ReactJS" style="text;html=1;align=center;verticalAlign=middle;resizable=0;points=[];autosize=1;strokeColor=none;fillColor=none;fontColor=#000000;" parent="1" vertex="1"><mxGeometry x="425.61" y="185" width="90" height="40" as="geometry"/></mxCell><mxCell id="13" value="Motor PHP" style="text;html=1;align=center;verticalAlign=middle;resizable=0;points=[];autosize=1;strokeColor=none;fillColor=none;fontColor=#000000;" parent="1" vertex="1"><mxGeometry x="499.95" y="360" width="80" height="30" as="geometry"/></mxCell><mxCell id="14" value="Base de datos&lt;br&gt;Xampp" style="text;html=1;align=center;verticalAlign=middle;resizable=0;points=[];autosize=1;strokeColor=none;fillColor=none;fontColor=#000000;" parent="1" vertex="1"><mxGeometry x="510" y="520" width="100" height="40" as="geometry"/></mxCell><mxCell id="15" value="Respuesta&lt;br&gt;&amp;nbsp;JavaScript&amp;nbsp;" style="text;html=1;align=center;verticalAlign=middle;resizable=0;points=[];autosize=1;strokeColor=none;fillColor=none;fontColor=#000000;" parent="1" vertex="1"><mxGeometry x="510" y="642" width="90" height="40" as="geometry"/></mxCell><mxCell id="16" value="Servidor web&lt;br&gt;ReactJS" style="text;html=1;align=center;verticalAlign=middle;resizable=0;points=[];autosize=1;strokeColor=none;fillColor=none;fontColor=#000000;" parent="1" vertex="1"><mxGeometry x="499.95" y="775.48" width="90" height="40" as="geometry"/></mxCell><mxCell id="17" value="Resultado en el&lt;br&gt;navegador" style="text;html=1;align=center;verticalAlign=middle;resizable=0;points=[];autosize=1;strokeColor=none;fillColor=none;fontColor=#000000;" parent="1" vertex="1"><mxGeometry x="170" y="720" width="110" height="40" as="geometry"/></mxCell><mxCell id="20" value="Solicitud HTTP" style="text;html=1;align=center;verticalAlign=middle;resizable=0;points=[];autosize=1;strokeColor=none;fillColor=none;fontColor=#000000;" parent="1" vertex="1"><mxGeometry x="320" y="760" width="100" height="30" as="geometry"/></mxCell><mxCell id="22" value="Solicitud HTTP" style="text;html=1;align=center;verticalAlign=middle;resizable=0;points=[];autosize=1;fontColor=#000000;" parent="1" vertex="1"><mxGeometry x="300" y="215" width="100" height="30" as="geometry"/></mxCell><mxCell id="27" value="" style="outlineConnect=0;dashed=0;verticalLabelPosition=bottom;verticalAlign=top;align=center;html=1;shape=mxgraph.aws3.android;fillColor=#205E00;gradientColor=none;" vertex="1" parent="1"><mxGeometry x="424.53" y="620" width="73.5" height="84" as="geometry"/></mxCell></root></mxGraphModel></diagram></mxfile>